<svg xmlns="http://www.w3.org/2000/svg" width="1584" height="396" viewBox="0 0 1584 396">
  <rect width="1584" height="396" fill="#ffffff"/>
  <!-- input signal -->
  <line x1="600" y1="198" x2="820" y2="198" stroke="#d6d6d6" stroke-width="1" stroke-dasharray="2 6"/>
  <!-- model: layered network -->
  <g stroke="#e2e2e2" stroke-width="1">
    <line x1="860" y1="108" x2="990" y2="78"/><line x1="860" y1="108" x2="990" y2="138"/><line x1="860" y1="108" x2="990" y2="198"/><line x1="860" y1="108" x2="990" y2="258"/><line x1="860" y1="108" x2="990" y2="318"/><line x1="860" y1="153" x2="990" y2="78"/><line x1="860" y1="153" x2="990" y2="138"/><line x1="860" y1="153" x2="990" y2="198"/><line x1="860" y1="153" x2="990" y2="258"/><line x1="860" y1="153" x2="990" y2="318"/><line x1="860" y1="198" x2="990" y2="78"/><line x1="860" y1="198" x2="990" y2="138"/><line x1="860" y1="198" x2="990" y2="198"/><line x1="860" y1="198" x2="990" y2="258"/><line x1="860" y1="198" x2="990" y2="318"/><line x1="860" y1="243" x2="990" y2="78"/><line x1="860" y1="243" x2="990" y2="138"/><line x1="860" y1="243" x2="990" y2="198"/><line x1="860" y1="243" x2="990" y2="258"/><line x1="860" y1="243" x2="990" y2="318"/><line x1="860" y1="288" x2="990" y2="78"/><line x1="860" y1="288" x2="990" y2="138"/><line x1="860" y1="288" x2="990" y2="198"/><line x1="860" y1="288" x2="990" y2="258"/><line x1="860" y1="288" x2="990" y2="318"/><line x1="990" y1="78" x2="1120" y2="123"/><line x1="990" y1="78" x2="1120" y2="173"/><line x1="990" y1="78" x2="1120" y2="223"/><line x1="990" y1="78" x2="1120" y2="273"/><line x1="990" y1="138" x2="1120" y2="123"/><line x1="990" y1="138" x2="1120" y2="173"/><line x1="990" y1="138" x2="1120" y2="223"/><line x1="990" y1="138" x2="1120" y2="273"/><line x1="990" y1="198" x2="1120" y2="123"/><line x1="990" y1="198" x2="1120" y2="173"/><line x1="990" y1="198" x2="1120" y2="223"/><line x1="990" y1="198" x2="1120" y2="273"/><line x1="990" y1="258" x2="1120" y2="123"/><line x1="990" y1="258" x2="1120" y2="173"/><line x1="990" y1="258" x2="1120" y2="223"/><line x1="990" y1="258" x2="1120" y2="273"/><line x1="990" y1="318" x2="1120" y2="123"/><line x1="990" y1="318" x2="1120" y2="173"/><line x1="990" y1="318" x2="1120" y2="223"/><line x1="990" y1="318" x2="1120" y2="273"/><line x1="1120" y1="123" x2="1250" y2="198"/><line x1="1120" y1="173" x2="1250" y2="198"/><line x1="1120" y1="223" x2="1250" y2="198"/><line x1="1120" y1="273" x2="1250" y2="198"/>
  </g>
  <g fill="#ffffff" stroke="#bdbdbd" stroke-width="1.5">
    <circle cx="860" cy="108" r="5"/><circle cx="860" cy="153" r="5"/><circle cx="860" cy="198" r="5"/><circle cx="860" cy="243" r="5"/><circle cx="860" cy="288" r="5"/><circle cx="990" cy="78" r="5"/><circle cx="990" cy="138" r="5"/><circle cx="990" cy="198" r="5"/><circle cx="990" cy="258" r="5"/><circle cx="990" cy="318" r="5"/><circle cx="1120" cy="123" r="5"/><circle cx="1120" cy="173" r="5"/><circle cx="1120" cy="223" r="5"/><circle cx="1120" cy="273" r="5"/>
  </g>
  <!-- applied: output shipped into the world -->
  <circle cx="1250" cy="198" r="18" fill="#e3120b" fill-opacity="0.08"/>
  <circle cx="1250" cy="198" r="7" fill="#e3120b"/>
  <line x1="1257" y1="198" x2="1536" y2="198" stroke="#e3120b" stroke-width="3"/>
  <circle cx="1536" cy="198" r="4" fill="#e3120b"/>
</svg>
